<?xml version="1.0" encoding="UTF-8"?>
<svg version="1.1" xmlns="http://www.w3.org/2000/svg" width="512" height="512">
<path d="M0 0 C1.31036224 -0.00705963 2.62072449 -0.01411926 3.97079468 -0.02139282 C8.17063978 -0.04088583 12.37042638 -0.04608449 16.5703125 -0.046875 C17.28666367 -0.04716957 18.00301483 -0.04746414 18.74107361 -0.04776764 C40.19018709 -0.04919217 61.42112812 0.11361517 82.6953125 3.203125 C83.76060181 3.35584869 83.76060181 3.35584869 84.84741211 3.51165771 C110.60308688 7.22393049 136.3810766 11.66175855 160.6953125 21.203125 C161.54158203 21.52651855 162.38785156 21.84991211 163.25976562 22.18310547 C180.2848792 28.70899336 196.95212399 35.95743682 210.6953125 48.203125 C211.93474609 49.22986328 211.93474609 49.22986328 213.19921875 50.27734375 C219.76442116 55.8602716 224.92023342 62.04863417 229.6953125 69.203125 C230.08686523 69.78465332 230.47841797 70.36618164 230.88183594 70.96533203 C263.92430776 121.00830205 272.70504578 192.37545735 272.8984375 251.06640625 C272.90126488 251.75155996 272.90409225 252.43671368 272.90700531 253.14262962 C272.92187321 256.78576389 272.9311744 260.42885999 272.93554688 264.07202148 C272.93987995 267.00053724 272.95358601 269.92874977 272.9765625 272.85717773 C273.28470015 313.00714264 269.07173802 352.31327231 258.6953125 391.203125 C258.45699707 392.10240723 258.21868164 393.00168945 257.97314453 393.92822266 C248.44607103 429.25751445 229.8560195 459.73339737 197.72607422 478.34375 C160.94374695 498.77529179 116.0461419 506.03560327 74.6953125 510.203125 C73.85495453 510.28999573 73.01459656 510.37686646 72.14877319 510.46636963 C53.14925374 512.37426587 34.20566139 512.60413269 15.1328125 512.578125 C14.3533577 512.57788582 13.57390289 512.57764664 12.77082825 512.57740021 C-12.11523786 512.56775858 -36.6544593 511.8947518 -61.3046875 508.203125 C-62.83217947 507.98118242 -64.35968623 507.7593417 -65.88720703 507.53759766 C-110.9570736 500.89696447 -169.25431934 489.83445773 -198.41015625 450.98046875 C-217.95530995 422.32767642 -227.82625689 389.33546865 -233.5546875 355.390625 C-233.67361359 354.69776398 -233.79253967 354.00490295 -233.91506958 353.29104614 C-234.82154876 347.94233522 -235.58959149 342.58054949 -236.3046875 337.203125 C-236.43812561 336.22279297 -236.57156372 335.24246094 -236.70904541 334.23242188 C-239.41698447 313.69816753 -239.7756274 293.36395044 -239.69580078 272.68408203 C-239.67873625 268.22841094 -239.6888725 263.77327863 -239.70611477 259.317626 C-239.79732582 231.54913652 -238.32930572 204.29371314 -233.4921875 176.890625 C-233.36396606 176.14762146 -233.23574463 175.40461792 -233.1036377 174.63909912 C-226.24815465 134.97762673 -216.21633347 90.50850909 -189.3046875 59.203125 C-188.77617187 58.53023437 -188.24765625 57.85734375 -187.703125 57.1640625 C-175.67806321 42.29563634 -156.65616852 32.48201406 -139.3046875 25.203125 C-138.63614746 24.92259277 -137.96760742 24.64206055 -137.27880859 24.35302734 C-94.66707811 6.85979062 -45.84082953 0.1656628 0 0 Z " fill="#FE9F40" transform="translate(239.3046875,-0.203125)"/>
<path d="M0 0 C10.52775434 6.17269271 18.30183798 14.916621 25 25 C25.39010254 25.58007812 25.78020508 26.16015625 26.18212891 26.7578125 C59.22883896 76.80035369 68.00972735 148.17053141 68.203125 206.86328125 C68.20595238 207.54843496 68.20877975 208.23358868 68.21169281 208.93950462 C68.22656071 212.58263889 68.2358619 216.22573499 68.24023438 219.86889648 C68.24456745 222.79741224 68.25827351 225.72562477 68.28125 228.65405273 C68.58938765 268.80401764 64.37642552 308.11014731 54 347 C53.76168457 347.89928223 53.52336914 348.79856445 53.27783203 349.72509766 C43.75075853 385.05438945 25.160707 415.53027237 -6.96923828 434.140625 C-43.75156555 454.57216679 -88.6491706 461.83247827 -130 466 C-130.84035797 466.08687073 -131.68071594 466.17374146 -132.54653931 466.26324463 C-151.54605876 468.17114087 -170.48965111 468.40100769 -189.5625 468.375 C-190.3419548 468.37476082 -191.12140961 468.37452164 -191.92448425 468.37427521 C-216.81055036 468.36463358 -241.3497718 467.6916268 -266 464 C-267.52749197 463.77805742 -269.05499873 463.5562167 -270.58251953 463.33447266 C-315.89629753 456.65790135 -373.89582757 445.5414527 -403.2109375 406.55859375 C-412 393.98908297 -412 393.98908297 -412 390 C-411.13947021 390.11593506 -410.27894043 390.23187012 -409.39233398 390.35131836 C-406.12183986 390.78950107 -402.8508071 391.22317368 -399.5793457 391.65405273 C-398.17807359 391.83949408 -396.77702072 392.02660173 -395.3762207 392.21557617 C-319.65188558 402.41917864 -238.0565293 386.70435286 -174 344 C-171.73168945 343.77294922 -171.73168945 343.77294922 -169.11328125 343.8046875 C-168.17548828 343.81113281 -167.23769531 343.81757813 -166.27148438 343.82421875 C-165.29501953 343.84097656 -164.31855469 343.85773438 -163.3125 343.875 C-162.32443359 343.88402344 -161.33636719 343.89304687 -160.31835938 343.90234375 C-157.87866235 343.9259157 -155.43945303 343.95881978 -153 344 C-153.00276538 343.12038762 -153.00553076 342.24077524 -153.00837994 341.33450794 C-153.07475109 319.89114683 -153.12433466 298.44780352 -153.15543652 277.00436115 C-153.17087849 266.63429885 -153.19191678 256.26430528 -153.22631836 245.89428711 C-153.25630265 236.85147481 -153.27559439 227.80871231 -153.28226548 218.76585168 C-153.28616248 213.98163349 -153.29526489 209.19755774 -153.31719017 204.41338539 C-153.33769824 199.90148757 -153.34380514 195.38978958 -153.33932304 190.87784958 C-153.34014189 189.23042779 -153.34602165 187.58299864 -153.35761642 185.93561745 C-153.45474696 171.41112134 -152.43431932 156.48133827 -142.30078125 145.08984375 C-136.44117281 139.73060637 -130.34856822 137.41461759 -122.41796875 137.7265625 C-115.81660224 138.47308214 -111.65100986 141.50167398 -107.5703125 146.515625 C-99.18499186 159.78195317 -99.69954356 177.86969869 -99.77294922 193.01123047 C-99.77351483 194.66844679 -99.77319384 196.32566361 -99.77206421 197.98287964 C-99.77149556 202.43649908 -99.78316992 206.89000854 -99.79721212 211.34360266 C-99.80980173 216.01471731 -99.81089642 220.6858351 -99.81326294 225.35696411 C-99.8194537 234.18218097 -99.83583165 243.00734767 -99.85596192 251.83254254 C-99.87839617 261.88829155 -99.88933319 271.94404309 -99.89935279 281.99981093 C-99.92020028 302.66657475 -99.95684611 323.3332699 -100 344 C-77.23 344 -54.46 344 -31 344 C-31.05236816 338.96129639 -31.10473633 333.92259277 -31.15869141 328.73120117 C-31.32517478 311.99169536 -31.4356708 295.2521547 -31.51812172 278.51203442 C-31.5694017 268.37290535 -31.6391457 258.23456777 -31.75439453 248.09594727 C-31.85494969 239.24563363 -31.91878773 230.39589383 -31.94088495 221.54502469 C-31.95377604 216.87036376 -31.98344713 212.19734253 -32.05730057 207.52321434 C-32.38367187 186.02800174 -31.36884438 168.76089749 -22.26297474 148.95445538 C-5.26068727 109.18129282 -1.3723345 61.7763471 -0.4375 19.125 C-0.39418657 17.2617116 -0.35056882 15.39843025 -0.30664062 13.53515625 C-0.20092575 9.02351091 -0.0993041 4.51179081 0 0 Z " fill="#F49138" transform="translate(444,44)"/>
<path d="M0 0 C1.04220703 -0.01160156 2.08441406 -0.02320312 3.15820312 -0.03515625 C17.433079 0.0179431 33.23301952 4.41630841 43.91015625 14.44140625 C49.1364525 20.55728485 53.4907298 27.45556772 57.5625 34.375 C58.119375 33.67375 58.67625 32.9725 59.25 32.25 C69.56313944 19.42825907 79.93764006 9.32421445 95.5625 3.375 C96.80966797 2.89353516 96.80966797 2.89353516 98.08203125 2.40234375 C115.31205979 -3.02145733 136.23560085 -0.84164475 152.3125 6.9375 C168.71931794 16.7133306 177.20048951 33.6875399 182.5625 51.375 C188.35380578 74.68486159 187.97315926 98.21670748 187.86668181 122.05429721 C187.84768706 127.03765525 187.84614689 132.02102113 187.84260559 137.00440979 C187.8333511 146.4030928 187.80882851 155.80166877 187.77855712 165.20030504 C187.74480535 175.91645974 187.72847534 186.63262006 187.71347082 197.34881485 C187.68227156 219.3576159 187.62734403 241.36627058 187.5625 263.375 C164.7925 263.375 142.0225 263.375 118.5625 263.375 C118.54062622 255.89042114 118.54062622 255.89042114 118.51831055 248.25463867 C118.4678414 231.71836141 118.40137203 215.18217654 118.32678509 198.64599133 C118.28197572 188.62590276 118.24252751 178.60584856 118.21606445 168.58569336 C118.19296327 159.8438023 118.15943207 151.10202137 118.11379844 142.36021787 C118.09002828 137.73905782 118.07119409 133.11800573 118.06488609 128.49678612 C118.05876088 124.13089406 118.03849963 119.76527766 118.00822449 115.39948845 C117.99956156 113.81266966 117.99569667 112.22581466 117.99749184 110.63897324 C118.19555052 85.12246319 118.19555052 85.12246319 107.6875 62.875 C102.8386568 58.60512316 97.5188017 57.84260975 91.21875 58.00390625 C84.67270719 58.91842694 79.29652056 61.96291387 75.1875 67.125 C66.8183205 79.74969451 66.26210641 92.69370869 66.24365234 107.39111328 C66.23434036 109.09700489 66.22416982 110.80289198 66.21321106 112.5087738 C66.18604015 117.11339717 66.17080016 121.71799016 66.15778303 126.32267237 C66.14209569 131.14466468 66.11532347 135.96659549 66.0897522 140.7885437 C66.04306328 149.90779901 66.00627145 159.02706602 65.97307932 168.14637935 C65.93478789 178.53339252 65.88539621 188.92034375 65.83509517 199.30730462 C65.73192241 220.66316294 65.64407962 242.01904753 65.5625 263.375 C42.7925 263.375 20.0225 263.375 -3.4375 263.375 C-3.4468457 257.9297583 -3.45619141 252.4845166 -3.46582031 246.87426758 C-3.49961021 228.86910912 -3.55497054 210.8640645 -3.62140274 192.8589983 C-3.66114938 181.9441638 -3.69356409 171.02940094 -3.70849609 160.11450195 C-3.72153529 150.59696843 -3.7485578 141.07959284 -3.79211307 131.56214827 C-3.81467685 126.52643529 -3.83041373 121.49091672 -3.82938385 116.4551487 C-3.82863423 111.70673998 -3.84670561 106.95876021 -3.87866783 102.21046257 C-3.88712487 100.47599369 -3.88894557 98.74147647 -3.88330269 97.00699615 C-3.85114311 85.59394225 -3.98866372 73.70259304 -11.3125 64.25 C-15.81972595 59.75393055 -19.84339001 58.18568294 -26.1875 57.8125 C-33.71932187 58.02742792 -38.989338 60.89711247 -44.25 66.203125 C-54.51833167 78.83317295 -54.73650313 94.74171175 -54.75634766 110.22924805 C-54.76566245 111.90573095 -54.77583339 113.58220927 -54.78678894 115.25868225 C-54.8139283 119.77853822 -54.82919033 124.29836331 -54.84221697 128.81827903 C-54.85791831 133.5535151 -54.88468597 138.28868875 -54.9102478 143.02388 C-54.95691216 151.97664659 -54.99371577 160.92942508 -55.02692068 169.88225061 C-55.0652296 180.08065753 -55.11461662 190.27900157 -55.16490483 200.47735536 C-55.268041 221.44319612 -55.35589854 242.40906361 -55.4375 263.375 C-78.2075 263.375 -100.9775 263.375 -124.4375 263.375 C-124.7675 177.905 -125.0975 92.435 -125.4375 4.375 C-105.6375 4.375 -85.8375 4.375 -65.4375 4.375 C-64.4475 12.955 -63.4575 21.535 -62.4375 30.375 C-61.9425 31.86 -61.9425 31.86 -61.4375 33.375 C-60.75945312 32.61316406 -60.08140625 31.85132813 -59.3828125 31.06640625 C-51.06401296 21.79261939 -43.07052932 13.47691461 -32 7.5 C-31.32050293 7.13044189 -30.64100586 6.76088379 -29.94091797 6.38012695 C-20.22499023 1.38642078 -10.84793913 -0.12030986 0 0 Z " fill="#F0F4F5" transform="translate(225.4375,124.625)"/>
<path d="M0 0 C7.75909835 4.68473863 10.97488483 10.4951953 13.48828125 19.0703125 C16.12670917 30.65800556 16.59720227 42.10073378 16.53955078 53.91943359 C16.53898515 55.56679782 16.53930618 57.21416255 16.54043579 58.86152649 C16.54100439 63.28828757 16.52933083 67.71493797 16.51528788 72.14167356 C16.50269745 76.78476097 16.50160352 81.42785153 16.49923706 86.07095337 C16.49304653 94.84304642 16.47666892 103.61508901 16.45653808 112.38715994 C16.43410308 122.38245057 16.42316662 132.37774373 16.41314721 142.37305331 C16.39230027 162.91539693 16.357172 183.45769527 16.3125 204 C15.9825 204 15.6525 204 15.3125 204 C14.8175 175.29 14.8175 175.29 14.3125 146 C6.57461321 153.81638637 6.57461321 153.81638637 -1.15161133 161.64428711 C-8.73511663 169.29528914 -16.46164983 176.72814225 -25.5703125 182.57421875 C-32.26144609 186.81148303 -32.26144609 186.81148303 -35.73046875 193.74609375 C-35.97266564 197.23162289 -35.99317098 200.52236628 -35.6875 204 C-36.0175 204 -36.3475 204 -36.6875 204 C-36.75770971 181.79852761 -36.81054667 159.59707363 -36.84293652 137.39551258 C-36.85837818 127.08598421 -36.87941588 116.77652499 -36.91381836 106.46704102 C-36.9438036 97.47696642 -36.96309461 88.48694194 -36.96976548 79.49681872 C-36.97366233 74.74054584 -36.9827637 69.98441624 -37.00469017 65.22818947 C-37.02519975 60.74255617 -37.03130484 56.25712387 -37.02682304 51.77144814 C-37.02764182 50.13370162 -37.03352067 48.4959477 -37.04511642 46.85824203 C-37.14265119 32.36004766 -36.10106594 17.45800861 -25.98828125 6.08984375 C-18.33292004 -0.91180122 -9.90691609 -2.68662131 0 0 Z " fill="#FEA043" transform="translate(327.6875,183)"/>
</svg>
